<mxfile host="app.diagrams.net" modified="2024-02-07T07:28:24.151Z" agent="Mozilla/5.0 (Windows NT 10.0; Win64; x64) AppleWebKit/537.36 (KHTML, like Gecko) Chrome/121.0.0.0 Safari/537.36" etag="XN5guXngV-AjbtIyNO1J" version="23.1.1" type="github">
  <diagram name="Page-1" id="6KgGZTkST-vZNbU0rDkL">
    <mxGraphModel dx="796" dy="474" grid="1" gridSize="10" guides="1" tooltips="1" connect="1" arrows="1" fold="1" page="1" pageScale="1" pageWidth="827" pageHeight="1169" math="0" shadow="0">
      <root>
        <mxCell id="0" />
        <mxCell id="1" parent="0" />
        <mxCell id="c5HMmhW5INEfarO6YzDi-1" value="" style="shape=cylinder3;whiteSpace=wrap;html=1;boundedLbl=1;backgroundOutline=1;size=15;" parent="1" vertex="1">
          <mxGeometry x="222" y="346" width="60" height="90" as="geometry" />
        </mxCell>
        <mxCell id="c5HMmhW5INEfarO6YzDi-2" value="Questions" style="text;html=1;strokeColor=none;fillColor=none;align=center;verticalAlign=middle;whiteSpace=wrap;rounded=0;" parent="1" vertex="1">
          <mxGeometry x="222" y="386" width="60" height="30" as="geometry" />
        </mxCell>
        <mxCell id="c5HMmhW5INEfarO6YzDi-3" value="" style="shape=cylinder3;whiteSpace=wrap;html=1;boundedLbl=1;backgroundOutline=1;size=15;" parent="1" vertex="1">
          <mxGeometry x="399" y="347" width="60" height="86" as="geometry" />
        </mxCell>
        <mxCell id="c5HMmhW5INEfarO6YzDi-4" value="Answers" style="text;html=1;strokeColor=none;fillColor=none;align=center;verticalAlign=middle;whiteSpace=wrap;rounded=0;" parent="1" vertex="1">
          <mxGeometry x="401" y="385" width="60" height="30" as="geometry" />
        </mxCell>
        <mxCell id="c5HMmhW5INEfarO6YzDi-5" value="" style="rounded=1;whiteSpace=wrap;html=1;" parent="1" vertex="1">
          <mxGeometry x="200" y="180" width="280" height="80" as="geometry" />
        </mxCell>
        <mxCell id="c5HMmhW5INEfarO6YzDi-6" value="API Services&lt;br&gt;NodeJs" style="text;html=1;strokeColor=none;fillColor=none;align=center;verticalAlign=middle;whiteSpace=wrap;rounded=0;" parent="1" vertex="1">
          <mxGeometry x="269" y="205" width="140" height="30" as="geometry" />
        </mxCell>
        <mxCell id="c5HMmhW5INEfarO6YzDi-7" value="" style="rounded=1;whiteSpace=wrap;html=1;" parent="1" vertex="1">
          <mxGeometry x="279" y="30" width="120" height="60" as="geometry" />
        </mxCell>
        <mxCell id="c5HMmhW5INEfarO6YzDi-8" value="Client&lt;br&gt;ReactJs" style="text;html=1;strokeColor=none;fillColor=none;align=center;verticalAlign=middle;whiteSpace=wrap;rounded=0;" parent="1" vertex="1">
          <mxGeometry x="309" y="45" width="60" height="30" as="geometry" />
        </mxCell>
        <mxCell id="c5HMmhW5INEfarO6YzDi-10" value="" style="shape=flexArrow;endArrow=classic;startArrow=classic;html=1;rounded=0;entryX=0.5;entryY=1;entryDx=0;entryDy=0;exitX=0.5;exitY=0;exitDx=0;exitDy=0;" parent="1" source="c5HMmhW5INEfarO6YzDi-5" target="c5HMmhW5INEfarO6YzDi-7" edge="1">
          <mxGeometry width="100" height="100" relative="1" as="geometry">
            <mxPoint x="330" y="180" as="sourcePoint" />
            <mxPoint x="430" y="80" as="targetPoint" />
          </mxGeometry>
        </mxCell>
        <mxCell id="c5HMmhW5INEfarO6YzDi-11" value="" style="endArrow=none;html=1;rounded=0;" parent="1" edge="1">
          <mxGeometry width="50" height="50" relative="1" as="geometry">
            <mxPoint x="150" y="310" as="sourcePoint" />
            <mxPoint x="610" y="310" as="targetPoint" />
          </mxGeometry>
        </mxCell>
        <mxCell id="c5HMmhW5INEfarO6YzDi-12" value="" style="endArrow=classic;html=1;rounded=0;entryX=0.5;entryY=0;entryDx=0;entryDy=0;entryPerimeter=0;" parent="1" target="c5HMmhW5INEfarO6YzDi-1" edge="1">
          <mxGeometry width="50" height="50" relative="1" as="geometry">
            <mxPoint x="250" y="310" as="sourcePoint" />
            <mxPoint x="260" y="340" as="targetPoint" />
          </mxGeometry>
        </mxCell>
        <mxCell id="c5HMmhW5INEfarO6YzDi-13" value="" style="endArrow=classic;html=1;rounded=0;entryX=0.5;entryY=0;entryDx=0;entryDy=0;entryPerimeter=0;" parent="1" edge="1">
          <mxGeometry width="50" height="50" relative="1" as="geometry">
            <mxPoint x="431" y="310" as="sourcePoint" />
            <mxPoint x="430.5" y="347" as="targetPoint" />
          </mxGeometry>
        </mxCell>
        <mxCell id="c5HMmhW5INEfarO6YzDi-14" value="" style="endArrow=classic;startArrow=classic;html=1;rounded=0;entryX=0.5;entryY=1;entryDx=0;entryDy=0;" parent="1" target="c5HMmhW5INEfarO6YzDi-5" edge="1">
          <mxGeometry width="50" height="50" relative="1" as="geometry">
            <mxPoint x="340" y="310" as="sourcePoint" />
            <mxPoint x="380" y="250" as="targetPoint" />
          </mxGeometry>
        </mxCell>
        <mxCell id="6mBM3FRDyN0s2UEv1asZ-1" value="" style="shape=cylinder3;whiteSpace=wrap;html=1;boundedLbl=1;backgroundOutline=1;size=15;" vertex="1" parent="1">
          <mxGeometry x="316" y="346" width="60" height="90" as="geometry" />
        </mxCell>
        <mxCell id="6mBM3FRDyN0s2UEv1asZ-2" value="" style="shape=cylinder3;whiteSpace=wrap;html=1;boundedLbl=1;backgroundOutline=1;size=15;" vertex="1" parent="1">
          <mxGeometry x="120" y="345" width="60" height="90" as="geometry" />
        </mxCell>
        <mxCell id="6mBM3FRDyN0s2UEv1asZ-3" value="" style="shape=cylinder3;whiteSpace=wrap;html=1;boundedLbl=1;backgroundOutline=1;size=15;" vertex="1" parent="1">
          <mxGeometry x="580" y="343" width="60" height="90" as="geometry" />
        </mxCell>
        <mxCell id="6mBM3FRDyN0s2UEv1asZ-4" value="" style="shape=cylinder3;whiteSpace=wrap;html=1;boundedLbl=1;backgroundOutline=1;size=15;" vertex="1" parent="1">
          <mxGeometry x="490" y="343" width="60" height="90" as="geometry" />
        </mxCell>
        <mxCell id="6mBM3FRDyN0s2UEv1asZ-5" value="" style="endArrow=classic;html=1;rounded=0;entryX=0.5;entryY=0;entryDx=0;entryDy=0;entryPerimeter=0;" edge="1" parent="1">
          <mxGeometry width="50" height="50" relative="1" as="geometry">
            <mxPoint x="610" y="310" as="sourcePoint" />
            <mxPoint x="609.5" y="347" as="targetPoint" />
          </mxGeometry>
        </mxCell>
        <mxCell id="6mBM3FRDyN0s2UEv1asZ-6" value="" style="endArrow=classic;html=1;rounded=0;entryX=0.5;entryY=0;entryDx=0;entryDy=0;entryPerimeter=0;" edge="1" parent="1">
          <mxGeometry width="50" height="50" relative="1" as="geometry">
            <mxPoint x="520.5" y="310" as="sourcePoint" />
            <mxPoint x="520" y="347" as="targetPoint" />
          </mxGeometry>
        </mxCell>
        <mxCell id="6mBM3FRDyN0s2UEv1asZ-7" value="" style="endArrow=classic;html=1;rounded=0;entryX=0.5;entryY=0;entryDx=0;entryDy=0;entryPerimeter=0;" edge="1" parent="1">
          <mxGeometry width="50" height="50" relative="1" as="geometry">
            <mxPoint x="344.5" y="310" as="sourcePoint" />
            <mxPoint x="345.5" y="346" as="targetPoint" />
          </mxGeometry>
        </mxCell>
        <mxCell id="6mBM3FRDyN0s2UEv1asZ-8" value="" style="endArrow=classic;html=1;rounded=0;entryX=0.5;entryY=0;entryDx=0;entryDy=0;entryPerimeter=0;" edge="1" parent="1">
          <mxGeometry width="50" height="50" relative="1" as="geometry">
            <mxPoint x="149.5" y="309" as="sourcePoint" />
            <mxPoint x="150.5" y="345" as="targetPoint" />
          </mxGeometry>
        </mxCell>
        <mxCell id="6mBM3FRDyN0s2UEv1asZ-9" value="Admin" style="text;html=1;strokeColor=none;fillColor=none;align=center;verticalAlign=middle;whiteSpace=wrap;rounded=0;" vertex="1" parent="1">
          <mxGeometry x="120" y="385" width="60" height="30" as="geometry" />
        </mxCell>
        <mxCell id="6mBM3FRDyN0s2UEv1asZ-10" value="Users" style="text;html=1;strokeColor=none;fillColor=none;align=center;verticalAlign=middle;whiteSpace=wrap;rounded=0;" vertex="1" parent="1">
          <mxGeometry x="316" y="386" width="60" height="30" as="geometry" />
        </mxCell>
        <mxCell id="6mBM3FRDyN0s2UEv1asZ-11" value="Comments" style="text;html=1;strokeColor=none;fillColor=none;align=center;verticalAlign=middle;whiteSpace=wrap;rounded=0;" vertex="1" parent="1">
          <mxGeometry x="490" y="385" width="60" height="30" as="geometry" />
        </mxCell>
        <mxCell id="6mBM3FRDyN0s2UEv1asZ-12" value="Tags" style="text;html=1;strokeColor=none;fillColor=none;align=center;verticalAlign=middle;whiteSpace=wrap;rounded=0;" vertex="1" parent="1">
          <mxGeometry x="580" y="385" width="60" height="30" as="geometry" />
        </mxCell>
        <mxCell id="6mBM3FRDyN0s2UEv1asZ-13" value="DATABASE" style="text;html=1;strokeColor=none;fillColor=none;align=center;verticalAlign=middle;whiteSpace=wrap;rounded=0;" vertex="1" parent="1">
          <mxGeometry x="273" y="289" width="60" height="30" as="geometry" />
        </mxCell>
        <mxCell id="6mBM3FRDyN0s2UEv1asZ-14" value="LAYER" style="text;html=1;strokeColor=none;fillColor=none;align=center;verticalAlign=middle;whiteSpace=wrap;rounded=0;" vertex="1" parent="1">
          <mxGeometry x="338" y="289" width="60" height="30" as="geometry" />
        </mxCell>
      </root>
    </mxGraphModel>
  </diagram>
</mxfile>
